<svg width="99" height="40" viewBox="0 0 99 40" fill="none" xmlns="http://www.w3.org/2000/svg">
<g clip-path="url(#clip0_505_512)">
<path d="M45.7208 2.44787V0.395757H50.903V20.6102C50.9297 22.3833 50.5425 24.1379 49.7724 25.7357C49.0352 27.2363 47.8619 28.4799 46.4057 29.3039C44.743 30.2091 42.8688 30.6555 40.9759 30.5976C38.4109 30.7195 35.8795 29.9764 33.7885 28.4879C31.969 27.0755 30.7825 25.002 30.4877 22.7195H35.5874C35.8503 23.7086 36.463 24.5696 37.3121 25.1426C38.2956 25.7671 39.4487 26.0719 40.6129 26.0157C41.2892 26.0456 41.9646 25.9419 42.6005 25.7099C43.2364 25.478 43.8201 25.1227 44.318 24.6646C44.826 24.1127 45.2137 23.4613 45.4566 22.7521C45.6995 22.0428 45.7922 21.2912 45.729 20.5443V16.531C45.2255 17.8817 44.3033 19.0365 43.0967 19.8272C41.7724 20.6767 40.2222 21.1075 38.6488 21.0633C37.0084 21.0856 35.3943 20.6519 33.9865 19.8107C32.5713 18.9367 31.4436 17.6674 30.7434 16.16C29.9709 14.3925 29.5723 12.485 29.5723 10.5565C29.5723 8.62805 29.9709 6.72051 30.7434 4.95305C31.4437 3.44789 32.5716 2.18101 33.9865 1.31035C35.3927 0.465523 37.0079 0.0315422 38.6488 0.0577622C40.3734 0.140168 44.3427 0.14049 45.7208 2.44787ZM36.3465 6.27968C35.3836 7.52787 34.8615 9.05934 34.8615 10.635C34.8615 12.2106 35.3836 13.7417 36.3465 14.9899C37.3986 16.0057 38.8071 16.5701 40.2706 16.5624C41.734 16.5547 43.1362 15.9756 44.1775 14.9488C45.1763 13.7276 45.7218 12.1993 45.7218 10.6225C45.7218 9.04575 45.1763 7.51742 44.1775 6.29617C43.677 5.76894 43.0707 5.3531 42.398 5.07617C41.7254 4.79925 41.0016 4.66735 40.2744 4.68909C39.5438 4.65744 38.815 4.78325 38.1373 5.05767C37.4595 5.33208 36.8487 5.74882 36.3465 6.27968Z" fill="url(#paint0_linear_505_512)"/>
<path d="M41.594 39.9911C40.3543 39.9918 39.1161 39.9034 37.8889 39.7272C29.2079 38.4663 22.4248 33.0773 20.6012 25.9986C20.1723 23.5844 20.0145 21.1297 20.1308 18.6806C20.1308 18.3262 20.1308 17.9966 20.1308 17.7V8.96484H25.3295V17.7C25.3295 18.0131 25.3295 18.3512 25.3295 18.722C25.2396 20.7214 25.3417 22.7246 25.6347 24.7045C26.9303 29.756 32.0382 33.6374 38.6315 34.5933C43.69 35.3267 50.1843 34.2555 53.3531 29.0803L54.1782 27.4733C56.7776 22.1828 62.4797 22.1333 65.5329 22.1004H67.4309C67.9818 22.0198 68.5164 21.8533 69.0152 21.6062C69.9426 21.1529 70.7245 20.4496 71.2728 19.5759C71.8211 18.7022 72.1138 17.6929 72.118 16.6619V8.99784H77.3167V16.6619C77.314 19.2642 76.3627 21.7764 74.6407 23.7296C72.9186 25.6828 70.5435 26.9434 67.9589 27.2757H67.8105H65.5825C61.4565 27.3169 59.7317 27.9349 58.8405 29.7479L57.8916 31.6431C54.6816 36.9253 48.6412 39.9911 41.594 39.9911Z" fill="url(#paint1_linear_505_512)"/>
<path d="M60.3427 2.96722V0.297067H55.1192V19.7865C55.1183 19.8626 55.1371 19.9377 55.1736 20.0046C55.2101 20.0714 55.2631 20.1278 55.3277 20.1683C55.3923 20.2088 55.4663 20.2321 55.5424 20.2359C55.6186 20.2397 55.6945 20.2239 55.7628 20.1901C57.1086 19.5617 58.5241 19.0943 59.9797 18.7974C60.081 18.7768 60.1721 18.7223 60.2382 18.6429C60.3042 18.5635 60.341 18.4641 60.3427 18.3609V10.9443C60.3427 7.38984 62.2682 5.61243 66.1191 5.61243H67.6375V0.0335122C66.0366 0.000549722 61.8528 0.29726 60.3427 2.96722Z" fill="url(#paint2_linear_505_512)"/>
<path d="M22.8289 6.73198L22.2924 5.55383C21.9851 4.88857 21.4453 4.35815 20.7742 4.06223L19.5859 3.55926L20.7576 3.0237C21.428 2.71866 21.9606 2.17505 22.2513 1.4991L22.7628 0.3125L23.2993 1.48301C23.6021 2.15432 24.1471 2.68658 24.8258 2.97421L26.0058 3.48522L24.8341 4.02078C24.1637 4.32582 23.6311 4.86943 23.3404 5.54538L22.8289 6.73198Z" fill="#EFB700"/>
<path d="M10.2538 10.0378V4.64841H10.1712H15.3535V0.248047H0.5V4.64841H4.94791V9.73281C4.94791 9.79874 4.94791 9.84815 4.94791 9.90584V10.0129C4.94791 15.5011 7.27484 21.9042 15.3535 21.9042V17.6439C11.2275 17.6686 10.2538 14.4878 10.2538 10.0378Z" fill="url(#paint3_linear_505_512)"/>
<path d="M74.718 6.73198L74.1817 5.55383C73.8736 4.88622 73.3301 4.35521 72.655 4.06223L71.4668 3.55926L72.6468 3.0237C73.3153 2.71605 73.847 2.17328 74.1404 1.4991L74.6521 0.3125L75.1802 1.48301C75.483 2.15432 76.0282 2.68658 76.7069 2.97421L77.8951 3.48522L76.7234 4.02078C76.053 4.32582 75.5205 4.86943 75.2297 5.54538L74.718 6.73198Z" fill="#EFB700"/>
<path d="M97.3363 11.9731C96.5701 11.1657 95.6099 10.5668 94.547 10.2341C93.1962 9.83003 91.817 9.52696 90.4211 9.32753C89.1466 9.14456 87.8941 8.83265 86.6829 8.39644C86.3317 8.28694 86.0251 8.06789 85.8082 7.77115C85.5912 7.47441 85.4756 7.1157 85.4782 6.74831C85.4865 6.38545 85.596 6.03211 85.7943 5.72789C85.9925 5.42367 86.2717 5.18074 86.6005 5.02615C87.6288 4.53644 88.7638 4.31256 89.9013 4.37511C92.0265 4.34457 94.12 4.8914 95.9581 5.95725L97.8561 2.20792C96.7458 1.57967 95.5424 1.13154 94.2912 0.880892C92.8646 0.554375 91.4061 0.38885 89.9426 0.386776C87.5464 0.261472 85.171 0.889515 83.1511 2.18298C82.368 2.71214 81.731 3.42973 81.2984 4.26929C80.8658 5.10884 80.6515 6.04344 80.6755 6.98732C80.5743 8.27679 80.9766 9.55543 81.7978 10.5556C82.5701 11.3964 83.5527 12.0166 84.6447 12.3522C86.0384 12.764 87.4621 13.0668 88.9028 13.2583C90.1336 13.419 91.3463 13.6949 92.5254 14.0824C92.8568 14.1789 93.1468 14.3829 93.3499 14.6618C93.553 14.9407 93.6579 15.2788 93.6477 15.6235C93.6477 17.1837 92.1705 17.9611 89.2163 17.9556C86.5326 18.0163 83.8632 17.5487 81.3605 16.5795V20.6998C83.77 21.6006 86.331 22.0285 88.9028 21.9605C91.857 21.9605 94.1923 21.37 95.9087 20.1888C96.7073 19.6829 97.3624 18.981 97.8117 18.15C98.2611 17.319 98.4894 16.3867 98.475 15.4424C98.5611 14.1822 98.1528 12.9379 97.3363 11.9731Z" fill="url(#paint4_linear_505_512)"/>
</g>
<defs>
<linearGradient id="paint0_linear_505_512" x1="24.7846" y1="-9.24236" x2="94.368" y2="1.81549" gradientUnits="userSpaceOnUse">
<stop offset="0.0885417" stop-color="#4EC8AB"/>
<stop offset="0.645833" stop-color="#81F4D8"/>
</linearGradient>
<linearGradient id="paint1_linear_505_512" x1="7.25082" y1="-0.477935" x2="169.949" y2="67.8224" gradientUnits="userSpaceOnUse">
<stop offset="0.0885417" stop-color="#4EC8AB"/>
<stop offset="0.645833" stop-color="#81F4D8"/>
</linearGradient>
<linearGradient id="paint2_linear_505_512" x1="52.3096" y1="-6.11817" x2="93.3584" y2="-0.329442" gradientUnits="userSpaceOnUse">
<stop offset="0.0885417" stop-color="#4EC8AB"/>
<stop offset="0.645833" stop-color="#81F4D8"/>
</linearGradient>
<linearGradient id="paint3_linear_505_512" x1="-2.83367" y1="-6.34297" x2="45.659" y2="1.22747" gradientUnits="userSpaceOnUse">
<stop offset="0.0885417" stop-color="#4EC8AB"/>
<stop offset="0.645833" stop-color="#81F4D8"/>
</linearGradient>
<linearGradient id="paint4_linear_505_512" x1="76.6593" y1="-6.20172" x2="134.243" y2="4.61687" gradientUnits="userSpaceOnUse">
<stop offset="0.0885417" stop-color="#4EC8AB"/>
<stop offset="0.645833" stop-color="#81F4D8"/>
</linearGradient>
<clipPath id="clip0_505_512">
<rect width="98" height="40" fill="white" transform="translate(0.5)"/>
</clipPath>
</defs>
</svg>
